<?xml version="1.0" encoding="utf-8"?>
<!-- Generator: Adobe Illustrator 24.2.1, SVG Export Plug-In . SVG Version: 6.00 Build 0)  -->
<svg version="1.1" id="Layer_1" xmlns="http://www.w3.org/2000/svg" xmlns:xlink="http://www.w3.org/1999/xlink" x="0px" y="0px"
	 viewBox="0 0 900 400" style="enable-background:new 0 0 900 400;" xml:space="preserve">
<style type="text/css">
	.st0{fill:#2E5675;}
	.st1{fill:#EC632C;}
	.st2{fill:#EFEFEF;}
	.st3{opacity:0.87;fill:#CFCECE;}
	.st4{fill:#D0EBF9;}
	.st5{fill:#192E35;}
	.st6{fill:#E1E0E0;}
	.st7{fill:#FBFBFB;}
	.st8{fill:#385A65;}
	.st9{fill:#FFFFFF;}
	.st10{fill:#FDDCBB;}
	.st11{fill:#E7E8E9;}
	.st12{fill:#F4F3F4;}
</style>
<g>
	<path class="st0" d="M238.3,321.77c-0.87-0.39-1.93-0.06-2.35,0.74l-1.8,3.37c-2.55-0.63-5.16-0.94-7.78-0.95l-0.73-3.73
		c-0.17-0.87-1.09-1.45-2.04-1.3l-6.93,1.13c-0.96,0.16-1.6,0.99-1.43,1.87l0.73,3.74c-2.42,0.82-4.74,1.95-6.9,3.38l-3.01-2.64
		c-0.7-0.62-1.82-0.59-2.49,0.04l-4.88,4.63c-0.68,0.64-0.65,1.66,0.05,2.28l3.02,2.65c-0.71,0.97-1.36,1.98-1.93,3.03
		c-0.6,1.11-1.08,2.24-1.49,3.38l-4.15-0.53c-0.96-0.12-1.85,0.5-1.98,1.37l-0.97,6.37c-0.13,0.88,0.54,1.69,1.5,1.81l4.12,0.52
		c0.11,2.4,0.57,4.76,1.37,7.04l-3.66,1.78c-0.86,0.42-1.18,1.4-0.72,2.18l3.32,5.67c0.46,0.78,1.53,1.08,2.38,0.66l3.66-1.78
		c0.82,0.95,1.71,1.86,2.69,2.72c0.94,0.83,1.93,1.58,2.95,2.26l-1.8,3.38c-0.43,0.8-0.06,1.76,0.82,2.15l6.34,2.81
		c0.88,0.39,1.93,0.05,2.35-0.74l1.79-3.35c2.55,0.65,5.17,0.98,7.8,0.99l0.72,3.67c0.17,0.87,1.09,1.45,2.04,1.3l6.93-1.13
		c0.96-0.16,1.6-0.99,1.43-1.87l-0.71-3.62c2.45-0.83,4.8-1.96,6.99-3.4l2.9,2.55c0.7,0.61,1.82,0.59,2.5-0.05l4.88-4.63
		c0.67-0.64,0.65-1.66-0.05-2.28l-2.89-2.54c0.71-0.99,1.38-2.01,1.95-3.07c0.6-1.12,1.09-2.27,1.51-3.43l3.98,0.5
		c0.96,0.12,1.85-0.49,1.98-1.37l0.96-6.37c0.13-0.88-0.54-1.69-1.5-1.81l-3.97-0.5c-0.12-2.42-0.59-4.81-1.4-7.11l3.55-1.73
		c0.86-0.42,1.18-1.39,0.72-2.17l-3.33-5.67c-0.46-0.78-1.52-1.08-2.38-0.66l-3.59,1.75c-0.8-0.91-1.65-1.8-2.59-2.62
		c-0.98-0.86-2.02-1.64-3.1-2.36l1.78-3.35c0.42-0.8,0.06-1.76-0.82-2.15L238.3,321.77z M239.39,357.67
		c-3.47,6.48-12.04,9.16-19.13,6c-7.1-3.16-10.05-10.98-6.58-17.46c3.47-6.48,12.04-9.17,19.14-6
		C239.91,343.37,242.86,351.19,239.39,357.67z"/>
	<path class="st0" d="M829.71,271.73c-0.92-0.41-2.03-0.06-2.48,0.79l-1.9,3.56c-2.68-0.67-5.44-0.99-8.2-1l-0.77-3.93
		c-0.18-0.92-1.14-1.53-2.16-1.37l-7.31,1.19c-1.01,0.17-1.69,1.05-1.5,1.97l0.77,3.94c-2.56,0.87-5,2.06-7.27,3.56l-3.17-2.78
		c-0.74-0.65-1.92-0.63-2.63,0.04l-5.14,4.89c-0.72,0.67-0.68,1.75,0.05,2.4l3.19,2.79c-0.75,1.03-1.44,2.09-2.03,3.2
		c-0.63,1.17-1.14,2.36-1.57,3.56l-4.38-0.56c-1.02-0.13-1.95,0.52-2.09,1.45l-1.02,6.72c-0.14,0.93,0.57,1.78,1.58,1.91l4.34,0.55
		c0.12,2.53,0.6,5.02,1.44,7.42l-3.86,1.88c-0.91,0.45-1.25,1.47-0.76,2.29l3.5,5.98c0.48,0.83,1.61,1.14,2.51,0.69l3.85-1.88
		c0.87,1,1.8,1.97,2.84,2.86c1,0.87,2.03,1.67,3.11,2.39l-1.89,3.56c-0.45,0.84-0.07,1.85,0.86,2.26l6.68,2.96
		c0.93,0.41,2.03,0.06,2.48-0.78l1.89-3.54c2.69,0.68,5.46,1.03,8.23,1.05l0.76,3.86c0.18,0.92,1.14,1.53,2.15,1.37l7.31-1.19
		c1.01-0.16,1.68-1.05,1.5-1.97l-0.75-3.82c2.58-0.87,5.06-2.06,7.36-3.58l3.05,2.68c0.74,0.65,1.92,0.62,2.63-0.05l5.14-4.88
		c0.71-0.68,0.69-1.75-0.05-2.4l-3.05-2.68c0.75-1.04,1.46-2.12,2.06-3.24c0.63-1.18,1.15-2.39,1.59-3.61l4.19,0.53
		c1.02,0.13,1.95-0.52,2.09-1.44l1.02-6.71c0.14-0.93-0.57-1.78-1.59-1.91l-4.19-0.53c-0.12-2.55-0.62-5.07-1.48-7.5l3.74-1.82
		c0.91-0.44,1.24-1.47,0.76-2.29l-3.51-5.98c-0.48-0.82-1.61-1.14-2.51-0.69l-3.79,1.85c-0.84-0.96-1.74-1.9-2.73-2.76
		c-1.04-0.91-2.13-1.73-3.27-2.49l1.88-3.53c0.45-0.84,0.06-1.86-0.86-2.26L829.71,271.73z M830.85,309.59
		c-3.66,6.83-12.69,9.66-20.17,6.32c-7.48-3.33-10.59-11.58-6.93-18.41c3.65-6.83,12.69-9.67,20.17-6.33
		C831.41,294.51,834.51,302.76,830.85,309.59z"/>
	<g>
		<path class="st1" d="M360.69,313.04c0,0.44-0.07,0.87-0.22,1.29l-3.28,9.31c-0.78,2.21-3.39,3.43-5.8,2.72l-4.31-1.26
			c-1.57,2.47-3.41,4.78-5.48,6.9l2.68,3.35c1.45,1.81,0.98,4.56-1,5.88l-8.65,5.77c-1,0.66-2.21,0.93-3.43,0.76
			c-1.22-0.17-2.29-0.77-3.02-1.68l-2.72-3.4c-2.85,1.14-5.81,2.03-8.83,2.63l0.01,4.22c0,2.32-2.06,4.21-4.59,4.22l-10.72,0.02
			c-1.23,0-2.39-0.43-3.27-1.22c-0.87-0.79-1.36-1.85-1.36-2.97l-0.01-4.26c-1.5-0.3-2.96-0.65-4.35-1.06
			c-1.44-0.42-2.91-0.94-4.43-1.55l-2.76,3.49c-1.49,1.88-4.38,2.3-6.44,0.95l-8.69-5.72c-1.98-1.31-2.48-4.06-1.04-5.88l2.77-3.5
			c-2.05-2.09-3.87-4.37-5.43-6.79l-4.51,1.35c-2.41,0.72-5.02-0.48-5.82-2.68l-3.34-9.29c-0.78-2.15,0.58-4.6,2.95-5.31l4.55-1.36
			c-0.35-2.94-0.36-5.45-0.02-8.38l-4.56-1.34c-2.37-0.7-3.74-3.13-2.98-5.29l3.29-9.31c0.38-1.07,1.19-1.94,2.28-2.45
			c1.1-0.52,2.35-0.61,3.52-0.26l4.53,1.33c1.55-2.44,3.35-4.73,5.37-6.82l-2.8-3.49c-1.45-1.81-0.98-4.56,1-5.88l8.65-5.77
			c2.06-1.37,4.95-0.96,6.45,0.91l2.79,3.48c2.84-1.15,5.77-2.05,8.76-2.67l-0.01-4.27c0-2.32,2.06-4.21,4.6-4.22l10.71-0.03
			c1.23,0,2.39,0.43,3.27,1.23c0.87,0.79,1.36,1.85,1.36,2.97l0.01,4.21c1.59,0.31,3.13,0.68,4.62,1.12
			c1.36,0.4,2.76,0.89,4.23,1.48l2.7-3.41c0.72-0.91,1.79-1.51,3-1.69c1.22-0.18,2.44,0.09,3.44,0.74l8.69,5.72
			c1.2,0.79,1.91,2.06,1.91,3.41l0,0c0,0.89-0.3,1.74-0.87,2.46l-2.65,3.35c2.09,2.11,3.94,4.42,5.53,6.88l4.29-1.28
			c2.41-0.72,5.02,0.48,5.82,2.68l3.34,9.29c0.77,2.18-0.58,4.6-2.94,5.31l-4.29,1.28c0.35,2.98,0.36,5.53,0.02,8.53l4.3,1.26
			C359.41,309.6,360.69,311.21,360.69,313.04z M336.57,331.7l1.12-1.07c2.65-2.52,4.92-5.39,6.75-8.51l0.76-1.29l7.36,2.16
			c0.39,0.12,0.81-0.08,0.94-0.44l3.32-9.51c0-0.24-0.16-0.54-0.52-0.65l-7.36-2.16l0.21-1.46c0.56-3.82,0.54-6.75-0.02-10.52
			l-0.22-1.46l7.33-2.19c0.35-0.1,0.51-0.4,0.51-0.65l-3.38-9.5c-0.13-0.35-0.55-0.55-0.94-0.43l-7.33,2.19l-0.77-1.29
			c-1.85-3.1-4.14-5.95-6.81-8.48l-1.13-1.06l4.53-5.72c0.12-0.15,0.14-0.3,0.14-0.4l0,0c0-0.1-0.03-0.36-0.3-0.55l-8.69-5.72
			c-0.22-0.14-0.44-0.14-0.55-0.12c-0.11,0.02-0.33,0.08-0.49,0.27l-4.57,5.77l-1.45-0.62c-1.87-0.8-3.59-1.44-5.23-1.92
			c-1.81-0.53-3.73-0.96-5.7-1.28l-1.59-0.26l-0.02-7.14c0-0.25-0.14-0.41-0.22-0.48c-0.08-0.08-0.26-0.2-0.53-0.2l-10.71,0.03
			c-0.41,0-0.74,0.31-0.74,0.68l0.02,7.17l-1.58,0.28c-3.72,0.64-7.37,1.75-10.83,3.29l-1.45,0.65l-4.69-5.85
			c-0.24-0.3-0.71-0.37-1.04-0.15l-8.65,5.77c-0.54,0.36-0.4,0.64-0.16,0.95l4.68,5.85l-1.11,1.07c-2.6,2.51-4.84,5.34-6.65,8.44
			l-0.76,1.3l-7.58-2.23c-0.26-0.08-0.47-0.01-0.57,0.04c-0.1,0.05-0.29,0.16-0.37,0.4l-3.28,9.31c-0.03,0.45,0.12,0.75,0.48,0.85
			l7.61,2.23l-0.22,1.46c-0.54,3.73-0.53,6.63,0.03,10.37l0.22,1.45l-7.59,2.27c-0.35,0.1-0.51,0.4-0.51,0.64l3.38,9.5
			c0.13,0.35,0.55,0.55,0.94,0.43l7.55-2.26l0.77,1.3c1.82,3.07,4.08,5.89,6.72,8.4l1.12,1.06l-4.65,5.86
			c-0.24,0.3-0.38,0.59,0.17,0.95l8.69,5.72c0.33,0.22,0.8,0.15,1.04-0.15l4.64-5.86l1.46,0.64c1.91,0.83,3.69,1.49,5.42,2
			c1.74,0.51,3.52,0.91,5.45,1.23l1.58,0.27l0.03,7.18c0,0.25,0.14,0.41,0.22,0.48c0.08,0.07,0.26,0.2,0.52,0.2l10.72-0.02
			c0.4,0,0.74-0.31,0.74-0.68l-0.02-7.15l1.59-0.27c3.75-0.63,7.42-1.73,10.9-3.26l1.45-0.63l4.61,5.75
			c0.16,0.2,0.37,0.25,0.49,0.27c0.11,0.02,0.34,0.02,0.55-0.12l8.65-5.77c0.54-0.36,0.4-0.65,0.16-0.95L336.57,331.7z
			 M330.7,303.68c0,11.92-10.62,21.62-23.69,21.62c-13.07,0-23.7-9.7-23.7-21.62s10.63-21.62,23.7-21.62
			C320.08,282.05,330.7,291.75,330.7,303.68z M287.18,303.68c0,9.98,8.9,18.09,19.83,18.09c10.93,0,19.83-8.12,19.83-18.09
			s-8.89-18.09-19.83-18.09C296.08,285.58,287.18,293.7,287.18,303.68z"/>
	</g>
	<g>
		<path class="st0" d="M131.46,268.62v39.3h43.07v-30.18v-3.99v-5.14H131.46z M152.27,288.88h20.91v2.71h-20.91V288.88z
			 M132.81,276.5v-1.52h40.37v1.52H132.81z M132.81,277.74h18.1v28.94h-18.1V277.74z M152.27,306.68v-13.85h20.91v13.85H152.27z
			 M173.18,287.65h-20.91v-9.91h20.91V287.65z M132.81,273.75v-3.9h40.37v3.9H132.81z"/>
		<rect x="135.11" y="283.09" class="st0" width="12.64" height="1.24"/>
		<rect x="135.11" y="287.35" class="st0" width="12.64" height="1.24"/>
	</g>
	<path class="st1" d="M104.93,299.21v11.99h-1.3c-0.75-2.76-1.59-4.74-2.53-5.95c-0.94-1.21-2.21-2.18-3.82-2.92
		c-0.89-0.37-2.48-0.55-4.76-0.55H88.9v34.1c0,2.26,0.14,3.68,0.41,4.24c0.27,0.56,0.81,1.06,1.62,1.48
		c0.81,0.42,1.9,0.63,3.29,0.63h1.6v1.22H70.45v-1.22h1.6c1.41,0,2.53-0.22,3.37-0.67c0.63-0.31,1.12-0.84,1.47-1.58
		c0.26-0.52,0.39-1.89,0.39-4.1v-34.1h-3.5c-3.25,0-5.62,0.63-7.09,1.89c-2.07,1.76-3.39,4.27-3.93,7.53h-1.38v-11.99H104.93z"/>
	<g>
		<polygon class="st1" points="56.16,207.55 51.03,202.87 67.73,187.63 51.03,172.39 56.16,167.71 78,187.63 		"/>
		<rect x="5.41" y="184.32" class="st1" width="67.45" height="6.63"/>
		<polygon class="st0" points="21.84,237.6 0,217.68 21.84,197.75 26.97,202.44 10.27,217.68 26.97,232.92 		"/>
		<rect x="5.14" y="214.36" class="st0" width="67.45" height="6.63"/>
	</g>
	<path class="st0" d="M182.26,83.46V67.8h-17.16v5.78c-21,1.31-38.16,15.51-42,33.99h-14.85v15.66h14.85
		c3.84,18.49,21,32.68,42,33.99V163h17.16v-15.66h-17.16v5.49c-21.24-1.48-38.03-17.69-38.03-37.44c0-19.75,16.8-35.96,38.03-37.44
		v5.49H182.26z M169.91,151.73h7.55v6.89h-7.55V151.73z M120.61,118.85h-7.55v-6.89h7.55V118.85z M169.91,72.18h7.55v6.89h-7.55
		V72.18z"/>
	<g>
		<path class="st0" d="M857.02,120.88l-10.59-9.67c-4.27-3.89-4.27-10.23,0-14.13l5.12-4.68c4.27-3.89,11.22-3.89,15.49,0l10.6,9.67
			c4.27,3.89,4.27,10.23,0,14.13l-5.12,4.67C868.23,124.77,861.29,124.77,857.02,120.88z M861.87,97.11c-1.42-1.3-3.74-1.3-5.15,0
			l-5.13,4.67c-1.42,1.3-1.42,3.41,0,4.71l10.59,9.67c1.43,1.3,3.74,1.3,5.16,0l5.13-4.68c1.42-1.29,1.42-3.41,0-4.71L861.87,97.11z
			"/>
		<path class="st0" d="M882.73,139.63c1.43-1.3,1.43-3.41,0-4.71l-2.77-2.53c-1.42-1.3-1.42-3.41,0-4.71l5.12-4.67
			c1.42-1.3,3.74-1.3,5.16,0l2.77,2.52c1.43,1.3,3.74,1.3,5.17,0c1.43-1.3,1.42-3.41,0-4.71l-2.77-2.53c-4.27-3.9-11.22-3.9-15.49,0
			l-5.13,4.67c-4.27,3.9-4.27,10.24,0,14.13l2.77,2.53C879,140.93,881.31,140.94,882.73,139.63z"/>
		<path class="st0" d="M825.87,87.74c1.42-1.3,3.74-1.31,5.17,0l2.76,2.52c1.43,1.3,3.74,1.3,5.16,0l5.13-4.67
			c1.41-1.3,1.42-3.41-0.01-4.71l-2.77-2.53c-1.43-1.3-1.43-3.41,0-4.71c1.43-1.3,3.74-1.3,5.16,0l2.77,2.53
			c4.27,3.9,4.27,10.24,0,14.13l-5.12,4.68c-4.27,3.9-11.22,3.9-15.49,0l-2.76-2.52C824.44,91.15,824.44,89.04,825.87,87.74z"/>
		<path class="st0" d="M855.37,100.8c-1.43,1.3-3.74,1.3-5.16,0l-10.7-9.76c-1.43-1.3-1.43-3.41,0-4.71c1.43-1.3,3.74-1.3,5.16,0
			l10.7,9.77C856.8,97.39,856.8,99.5,855.37,100.8z"/>
		<path class="st0" d="M883.93,126.86c-1.43,1.3-3.73,1.3-5.16,0l-10.7-9.77c-1.43-1.3-1.43-3.41,0-4.71c1.43-1.3,3.74-1.3,5.16,0
			l10.7,9.77C885.35,123.45,885.35,125.56,883.93,126.86z"/>
	</g>
	<g>
		<path class="st2" d="M634.06,363.45H485.05l2.23-6.59c12.38-36.63,27.65-80.35,18.53-119.36l-0.67-2.84h108.83l-0.97,3.71
			c-9.91,38.13,5.3,81.79,18.29,117.47L634.06,363.45z"/>
		<path class="st3" d="M617.1,312.72c-2.95-10.89-5.28-21.99-6.46-33.03H507.59c-1.25,11.05-3.58,22.14-6.45,33.03H617.1z"/>
		<path class="st0" d="M752.09,277.33c0,11.81-10.49,21.39-23.44,21.39h-338.2c-12.95,0-23.44-9.58-23.44-21.39V94.01
			c0-11.81,10.49-21.39,23.44-21.39h338.2c12.95,0,23.44,9.58,23.44,21.39V277.33z"/>
		<rect x="389.75" y="92.64" class="st1" width="339.63" height="186.06"/>
		<rect x="389.75" y="92.64" class="st4" width="339.63" height="13.27"/>
		<g>
			<g>
				<g>
					<rect x="389.75" y="105.91" class="st5" width="339.63" height="172.79"/>
				</g>
			</g>
			<g>
				<g>
					<g>
						<path class="st6" d="M415.8,273.63c-0.18,0-0.32-36.8-0.32-82.19c0-45.4,0.14-82.19,0.32-82.19s0.32,36.79,0.32,82.19
							C416.12,236.82,415.98,273.63,415.8,273.63z"/>
					</g>
				</g>
			</g>
			<g>
				<g>
					<g>
						<path class="st6" d="M408.95,124.14c0,0.15-2.47,0.27-5.52,0.27c-3.05,0-5.52-0.12-5.52-0.27c0-0.15,2.47-0.27,5.52-0.27
							C406.48,123.87,408.95,123.99,408.95,124.14z"/>
					</g>
				</g>
			</g>
			<g>
				<g>
					<g>
						<path class="st6" d="M409.38,114.82c0,0.15-2.47,0.27-5.52,0.27c-3.05,0-5.52-0.12-5.52-0.27c0-0.15,2.47-0.27,5.52-0.27
							C406.91,114.54,409.38,114.67,409.38,114.82z"/>
					</g>
				</g>
			</g>
			<g>
				<g>
					<g>
						<path class="st6" d="M408.95,134.2c0,0.15-2.47,0.27-5.52,0.27c-3.05,0-5.52-0.12-5.52-0.27c0-0.15,2.47-0.27,5.52-0.27
							C406.48,133.92,408.95,134.05,408.95,134.2z"/>
					</g>
				</g>
			</g>
			<g>
				<g>
					<g>
						<path class="st6" d="M408.95,144.25c0,0.15-2.47,0.27-5.52,0.27c-3.05,0-5.52-0.12-5.52-0.27c0-0.15,2.47-0.27,5.52-0.27
							C406.48,143.98,408.95,144.1,408.95,144.25z"/>
					</g>
				</g>
			</g>
			<g>
				<g>
					<g>
						<path class="st6" d="M408.95,154.31c0,0.15-2.47,0.27-5.52,0.27c-3.05,0-5.52-0.12-5.52-0.27c0-0.15,2.47-0.27,5.52-0.27
							C406.48,154.03,408.95,154.15,408.95,154.31z"/>
					</g>
				</g>
			</g>
			<g>
				<g>
					<g>
						<path class="st6" d="M408.95,164.36c0,0.15-2.47,0.27-5.52,0.27c-3.05,0-5.52-0.12-5.52-0.27s2.47-0.27,5.52-0.27
							C406.48,164.09,408.95,164.21,408.95,164.36z"/>
					</g>
				</g>
			</g>
			<g>
				<g>
					<g>
						<path class="st6" d="M408.95,174.41c0,0.15-2.47,0.27-5.52,0.27c-3.05,0-5.52-0.12-5.52-0.27c0-0.15,2.47-0.27,5.52-0.27
							C406.48,174.14,408.95,174.26,408.95,174.41z"/>
					</g>
				</g>
			</g>
			<g>
				<g>
					<g>
						<path class="st6" d="M408.95,184.47c0,0.15-2.47,0.27-5.52,0.27c-3.05,0-5.52-0.12-5.52-0.27c0-0.15,2.47-0.27,5.52-0.27
							C406.48,184.19,408.95,184.32,408.95,184.47z"/>
					</g>
				</g>
			</g>
			<g>
				<g>
					<g>
						<path class="st6" d="M408.95,194.52c0,0.15-2.47,0.27-5.52,0.27c-3.05,0-5.52-0.12-5.52-0.27c0-0.15,2.47-0.27,5.52-0.27
							C406.48,194.25,408.95,194.37,408.95,194.52z"/>
					</g>
				</g>
			</g>
			<g>
				<g>
					<g>
						<path class="st6" d="M408.95,204.58c0,0.15-2.47,0.27-5.52,0.27c-3.05,0-5.52-0.12-5.52-0.27c0-0.15,2.47-0.27,5.52-0.27
							C406.48,204.3,408.95,204.42,408.95,204.58z"/>
					</g>
				</g>
			</g>
			<g>
				<g>
					<g>
						<path class="st6" d="M408.95,214.63c0,0.15-2.47,0.27-5.52,0.27c-3.05,0-5.52-0.12-5.52-0.27c0-0.15,2.47-0.27,5.52-0.27
							C406.48,214.35,408.95,214.48,408.95,214.63z"/>
					</g>
				</g>
			</g>
			<g>
				<g>
					<g>
						<path class="st6" d="M408.95,224.68c0,0.15-2.47,0.27-5.52,0.27c-3.05,0-5.52-0.12-5.52-0.27c0-0.15,2.47-0.27,5.52-0.27
							C406.48,224.41,408.95,224.53,408.95,224.68z"/>
					</g>
				</g>
			</g>
			<g>
				<g>
					<g>
						<path class="st6" d="M408.95,234.74c0,0.15-2.47,0.27-5.52,0.27c-3.05,0-5.52-0.12-5.52-0.27c0-0.15,2.47-0.27,5.52-0.27
							C406.48,234.46,408.95,234.59,408.95,234.74z"/>
					</g>
				</g>
			</g>
			<g>
				<g>
					<g>
						<path class="st6" d="M408.95,244.79c0,0.15-2.47,0.27-5.52,0.27c-3.05,0-5.52-0.12-5.52-0.27c0-0.15,2.47-0.27,5.52-0.27
							C406.48,244.52,408.95,244.64,408.95,244.79z"/>
					</g>
				</g>
			</g>
			<g>
				<g>
					<g>
						<path class="st6" d="M408.95,254.84c0,0.15-2.47,0.27-5.52,0.27c-3.05,0-5.52-0.12-5.52-0.27s2.47-0.27,5.52-0.27
							C406.48,254.57,408.95,254.69,408.95,254.84z"/>
					</g>
				</g>
			</g>
			<g>
				<g>
					<g>
						<path class="st6" d="M408.95,264.9c0,0.15-2.47,0.27-5.52,0.27c-3.05,0-5.52-0.12-5.52-0.27c0-0.15,2.47-0.27,5.52-0.27
							C406.48,264.62,408.95,264.75,408.95,264.9z"/>
					</g>
				</g>
			</g>
			<g>
				<g>
					<g>
						<path class="st1" d="M453.18,123.55c0,0.15-6.41,0.27-14.32,0.27c-7.91,0-14.32-0.12-14.32-0.27s6.41-0.27,14.32-0.27
							C446.77,123.28,453.18,123.4,453.18,123.55z"/>
					</g>
				</g>
			</g>
			<g>
				<g>
					<g>
						<path class="st1" d="M453.18,264.9c0,0.15-6.41,0.27-14.32,0.27c-7.91,0-14.32-0.12-14.32-0.27c0-0.15,6.41-0.27,14.32-0.27
							C446.77,264.62,453.18,264.75,453.18,264.9z"/>
					</g>
				</g>
			</g>
			<g>
				<g>
					<g>
						<path class="st1" d="M493.06,144.25c0,0.15-11.99,0.27-26.79,0.27c-14.8,0-26.79-0.12-26.79-0.27
							c0-0.15,11.99-0.27,26.79-0.27C481.06,143.98,493.06,144.1,493.06,144.25z"/>
					</g>
				</g>
			</g>
			<g>
				<g>
					<g>
						<path class="st6" d="M555.01,144.25c0,0.15-11.99,0.27-26.79,0.27c-14.8,0-26.79-0.12-26.79-0.27
							c0-0.15,11.99-0.27,26.79-0.27C543.01,143.98,555.01,144.1,555.01,144.25z"/>
					</g>
				</g>
			</g>
			<g>
				<g>
					<g>
						<path class="st6" d="M531.33,154.31c0,0.15-17.68,0.27-39.48,0.27c-21.81,0-39.48-0.12-39.48-0.27
							c0-0.15,17.67-0.27,39.48-0.27C513.65,154.03,531.33,154.15,531.33,154.31z"/>
					</g>
				</g>
			</g>
			<g>
				<g>
					<g>
						<path class="st6" d="M531.33,164.36c0,0.15-17.68,0.27-39.48,0.27c-21.81,0-39.48-0.12-39.48-0.27s17.67-0.27,39.48-0.27
							C513.65,164.09,531.33,164.21,531.33,164.36z"/>
					</g>
				</g>
			</g>
			<g>
				<g>
					<g>
						<path class="st6" d="M585.68,194.52c0,0.15-17.68,0.27-39.48,0.27c-21.81,0-39.48-0.12-39.48-0.27
							c0-0.15,17.67-0.27,39.48-0.27C568,194.25,585.68,194.37,585.68,194.52z"/>
					</g>
				</g>
			</g>
			<g>
				<g>
					<g>
						<path class="st6" d="M562.23,174.41c0,0.15-17.68,0.27-39.48,0.27c-21.81,0-39.48-0.12-39.48-0.27
							c0-0.15,17.67-0.27,39.48-0.27C544.55,174.14,562.23,174.26,562.23,174.41z"/>
					</g>
				</g>
			</g>
			<g>
				<g>
					<g>
						<path class="st6" d="M658.71,174.41c0,0.15-17.68,0.27-39.48,0.27c-21.81,0-39.48-0.12-39.48-0.27
							c0-0.15,17.67-0.27,39.48-0.27C641.03,174.14,658.71,174.26,658.71,174.41z"/>
					</g>
				</g>
			</g>
			<g>
				<g>
					<g>
						<path class="st7" d="M625.16,154.31c0,0.15-17.68,0.27-39.48,0.27c-21.81,0-39.48-0.12-39.48-0.27
							c0-0.15,17.67-0.27,39.48-0.27C607.48,154.03,625.16,154.15,625.16,154.31z"/>
					</g>
				</g>
			</g>
			<g>
				<g>
					<g>
						<path class="st7" d="M679.7,194.52c0,0.15-17.68,0.27-39.48,0.27c-21.81,0-39.48-0.12-39.48-0.27
							c0-0.15,17.67-0.27,39.48-0.27C662.02,194.25,679.7,194.37,679.7,194.52z"/>
					</g>
				</g>
			</g>
			<g>
				<g>
					<g>
						<path class="st8" d="M668.81,164.36c0,0.15-27.45,0.27-61.3,0.27c-33.86,0-61.31-0.12-61.31-0.27s27.44-0.27,61.31-0.27
							C641.36,164.09,668.81,164.21,668.81,164.36z"/>
					</g>
				</g>
			</g>
			<g>
				<g>
					<g>
						<path class="st7" d="M453.18,134.2c0,0.15-6.41,0.27-14.32,0.27c-7.91,0-14.32-0.12-14.32-0.27c0-0.15,6.41-0.27,14.32-0.27
							C446.77,133.92,453.18,134.05,453.18,134.2z"/>
					</g>
				</g>
			</g>
			<g>
				<g>
					<g>
						<path class="st7" d="M453.18,254.84c0,0.15-6.41,0.27-14.32,0.27c-7.91,0-14.32-0.12-14.32-0.27s6.41-0.27,14.32-0.27
							C446.77,254.57,453.18,254.69,453.18,254.84z"/>
					</g>
				</g>
			</g>
			<g>
				<g>
					<g>
						<path class="st7" d="M467.36,174.41c0,0.15-6.41,0.27-14.32,0.27c-7.91,0-14.32-0.12-14.32-0.27c0-0.15,6.41-0.27,14.32-0.27
							C460.95,174.14,467.36,174.26,467.36,174.41z"/>
					</g>
				</g>
			</g>
			<g>
				<g>
					<g>
						<path class="st1" d="M696.86,174.41c0,0.15-6.41,0.27-14.32,0.27c-7.91,0-14.32-0.12-14.32-0.27c0-0.15,6.41-0.27,14.32-0.27
							C690.45,174.14,696.86,174.26,696.86,174.41z"/>
					</g>
				</g>
			</g>
			<g>
				<g>
					<g>
						<path class="st1" d="M493.06,214.57c0,0.15-11.99,0.27-26.79,0.27c-14.8,0-26.79-0.12-26.79-0.27
							c0-0.15,11.99-0.27,26.79-0.27C481.06,214.3,493.06,214.42,493.06,214.57z"/>
					</g>
				</g>
			</g>
			<g>
				<g>
					<g>
						<path class="st6" d="M555.01,214.57c0,0.15-11.99,0.27-26.79,0.27c-14.8,0-26.79-0.12-26.79-0.27
							c0-0.15,11.99-0.27,26.79-0.27C543.01,214.3,555.01,214.42,555.01,214.57z"/>
					</g>
				</g>
			</g>
			<g>
				<g>
					<g>
						<path class="st6" d="M531.33,224.62c0,0.15-17.68,0.27-39.48,0.27c-21.81,0-39.48-0.12-39.48-0.27
							c0-0.15,17.67-0.27,39.48-0.27C513.65,224.35,531.33,224.47,531.33,224.62z"/>
					</g>
				</g>
			</g>
			<g>
				<g>
					<g>
						<path class="st6" d="M531.33,234.68c0,0.15-17.68,0.27-39.48,0.27c-21.81,0-39.48-0.12-39.48-0.27
							c0-0.15,17.67-0.27,39.48-0.27C513.65,234.4,531.33,234.53,531.33,234.68z"/>
					</g>
				</g>
			</g>
			<g>
				<g>
					<g>
						<path class="st6" d="M562.23,244.73c0,0.15-17.68,0.27-39.48,0.27c-21.81,0-39.48-0.12-39.48-0.27
							c0-0.15,17.67-0.27,39.48-0.27C544.55,244.46,562.23,244.58,562.23,244.73z"/>
					</g>
				</g>
			</g>
			<g>
				<g>
					<g>
						<path class="st6" d="M658.71,244.73c0,0.15-17.68,0.27-39.48,0.27c-21.81,0-39.48-0.12-39.48-0.27
							c0-0.15,17.67-0.27,39.48-0.27C641.03,244.46,658.71,244.58,658.71,244.73z"/>
					</g>
				</g>
			</g>
			<g>
				<g>
					<g>
						<path class="st7" d="M625.16,224.62c0,0.15-17.68,0.27-39.48,0.27c-21.81,0-39.48-0.12-39.48-0.27
							c0-0.15,17.67-0.27,39.48-0.27C607.48,224.35,625.16,224.47,625.16,224.62z"/>
					</g>
				</g>
			</g>
			<g>
				<g>
					<g>
						<path class="st8" d="M668.81,234.68c0,0.15-27.45,0.27-61.3,0.27c-33.86,0-61.31-0.12-61.31-0.27
							c0-0.15,27.44-0.27,61.31-0.27C641.36,234.4,668.81,234.53,668.81,234.68z"/>
					</g>
				</g>
			</g>
			<g>
				<g>
					<g>
						<path class="st7" d="M467.36,244.73c0,0.15-6.41,0.27-14.32,0.27c-7.91,0-14.32-0.12-14.32-0.27c0-0.15,6.41-0.27,14.32-0.27
							C460.95,244.46,467.36,244.58,467.36,244.73z"/>
					</g>
				</g>
			</g>
			<g>
				<g>
					<g>
						<path class="st1" d="M696.86,244.73c0,0.15-6.41,0.27-14.32,0.27c-7.91,0-14.32-0.12-14.32-0.27c0-0.15,6.41-0.27,14.32-0.27
							C690.45,244.46,696.86,244.58,696.86,244.73z"/>
					</g>
				</g>
			</g>
		</g>
		<path class="st9" d="M645.36,366.89c0,3.37-3,6.11-6.7,6.11H480.45c-3.7,0-6.7-2.74-6.7-6.11v-3.44c0-3.37,3-6.11,6.7-6.11h158.22
			c3.7,0,6.7,2.74,6.7,6.11V366.89z"/>
		<path class="st10" d="M563.18,81.34c0,1.83-1.62,3.31-3.63,3.31c-2,0-3.63-1.48-3.63-3.31s1.62-3.31,3.63-3.31
			C561.56,78.03,563.18,79.51,563.18,81.34z"/>
	</g>
	<g>
		<path class="st0" d="M356.54,372.22l20.31-9.54v2.76l-17.12,7.83v0.08l17.12,7.83v2.76l-20.31-9.55V372.22z"/>
		<path class="st0" d="M379.68,385.52l12.21-28.95h2.97l-12.25,28.95H379.68z"/>
		<path class="st0" d="M397.01,381.84c0-1.48,1.1-2.51,2.63-2.51c1.53,0,2.58,1.04,2.58,2.51c0,1.44-1.01,2.52-2.63,2.52
			C398.06,384.36,397.01,383.28,397.01,381.84z"/>
		<path class="st0" d="M406.06,381.84c0-1.48,1.09-2.51,2.62-2.51c1.53,0,2.58,1.04,2.58,2.51c0,1.44-1.01,2.52-2.63,2.52
			C407.11,384.36,406.06,383.28,406.06,381.84z"/>
		<path class="st0" d="M415.12,381.84c0-1.48,1.1-2.51,2.63-2.51c1.53,0,2.58,1.04,2.58,2.51c0,1.44-1.01,2.52-2.62,2.52
			C416.17,384.36,415.12,383.28,415.12,381.84z"/>
		<path class="st0" d="M445.09,374.42l-20.31,9.5v-2.76l17.24-7.83v-0.08l-17.24-7.83v-2.76l20.31,9.5V374.42z"/>
	</g>
	<path class="st0" d="M803.55,199.08l31.15-14.64v4.23l-26.25,12.01v0.12l26.25,12.01v4.23l-31.15-14.64V199.08z"/>
	<path class="st0" d="M839.05,219.47l18.73-44.41h4.56l-18.8,44.41H839.05z"/>
	<path class="st0" d="M897.72,202.45l-31.15,14.58v-4.23l26.45-12.01v-0.12l-26.45-12.01v-4.23l31.15,14.58V202.45z"/>
	<g>
		<path class="st0" d="M715.43,395.6v-45.51h11.45v3.14h-7.19v39.22h7.19v3.14H715.43z"/>
		<path class="st0" d="M733.88,389.2l1.63-11.19h-5.13v-3.37h5.7l1.19-8.28h-5.38v-3.37h5.94l1.63-10.9h3.63l-1.57,10.9h6.51
			l1.63-10.9h3.69l-1.56,10.9h5.13v3.37h-5.7l-1.13,8.28h5.38v3.37h-5.95l-1.63,11.19h-3.76l1.63-11.19h-6.51l-1.63,11.19H733.88z
			 M746.34,374.64l1.19-8.28h-6.5l-1.19,8.28H746.34z"/>
		<path class="st0" d="M771.79,350.03v45.56h-11.45v-3.14h7.2v-39.28h-7.2v-3.14H771.79z"/>
	</g>
	<g>
		<path class="st0" d="M111.2,233.26l20.06-9.43v2.72l-16.9,7.73v0.08l16.9,7.73v2.72l-20.06-9.43V233.26z"/>
		<path class="st0" d="M152.18,244.11c-0.99,0.47-3.2,1.1-6.01,1.1c-6.31,0-10.42-3.9-10.42-9.74c0-5.88,4.41-10.14,11.24-10.14
			c2.25,0,4.24,0.51,5.28,0.99L151.4,229c-0.91-0.47-2.34-0.91-4.41-0.91c-4.8,0-7.39,3.23-7.39,7.22c0,4.42,3.11,7.14,7.26,7.14
			c2.16,0,3.59-0.51,4.67-0.95L152.18,244.11z"/>
		<path class="st0" d="M175.3,235.11c0,7.06-5.36,10.14-10.42,10.14c-5.66,0-10.03-3.79-10.03-9.82c0-6.39,4.58-10.14,10.38-10.14
			C171.23,225.29,175.3,229.28,175.3,235.11z M158.7,235.31c0,4.18,2.64,7.34,6.35,7.34c3.63,0,6.35-3.12,6.35-7.42
			c0-3.23-1.77-7.34-6.27-7.34C160.64,227.89,158.7,231.68,158.7,235.31z"/>
		<path class="st0" d="M198.16,216.81v23.08c0,1.7,0.04,3.63,0.17,4.93h-3.42l-0.17-3.31h-0.09c-1.17,2.13-3.72,3.75-7.13,3.75
			c-5.06,0-8.95-3.91-8.95-9.71c-0.04-6.35,4.28-10.26,9.38-10.26c3.2,0,5.36,1.38,6.31,2.92h0.09v-11.4H198.16z M194.36,233.5
			c0-0.43-0.04-1.02-0.17-1.46c-0.56-2.21-2.64-4.02-5.49-4.02c-3.93,0-6.27,3.16-6.27,7.38c0,3.87,2.08,7.06,6.18,7.06
			c2.55,0,4.89-1.54,5.58-4.14c0.13-0.47,0.17-0.95,0.17-1.5V233.5z"/>
		<path class="st0" d="M206.59,235.9c0.09,4.69,3.37,6.63,7.18,6.63c2.72,0,4.37-0.43,5.79-0.99l0.65,2.48
			c-1.34,0.55-3.63,1.18-6.96,1.18c-6.44,0-10.29-3.87-10.29-9.62c0-5.76,3.72-10.3,9.81-10.3c6.83,0,8.65,5.48,8.65,8.99
			c0,0.71-0.08,1.26-0.13,1.62H206.59z M217.74,233.42c0.04-2.21-0.99-5.64-5.27-5.64c-3.85,0-5.53,3.24-5.84,5.64H217.74z"/>
		<path class="st0" d="M245.88,235.43l-20.06,9.39v-2.72l17.03-7.73v-0.08l-17.03-7.73v-2.72l20.06,9.39V235.43z"/>
	</g>
	<g>
		<path class="st4" d="M615.4,4.87H491.44c-9.32,0-16.88,6.9-16.88,15.4v57.04c0,8.51,7.56,15.4,16.88,15.4h10v36.69
			c0,1.89,2.51,2.84,3.98,1.5l41.86-38.19h68.13c9.32,0,16.88-6.9,16.88-15.4V20.27C632.28,11.77,624.72,4.87,615.4,4.87z"/>
		<g>
			<path class="st0" d="M502.19,33.32c2.74-0.43,6.6-0.75,12.03-0.75c5.49,0,9.41,0.96,12.03,2.88c2.52,1.81,4.21,4.8,4.21,8.32
				c0,3.52-1.29,6.5-3.63,8.53c-3.04,2.6-7.53,3.78-12.8,3.78c-1.17,0-2.22-0.05-3.03-0.16v12.85h-8.82V33.32z M511.02,49.63
				c0.76,0.16,1.69,0.21,2.98,0.21c4.73,0,7.66-2.19,7.66-5.86c0-3.31-2.51-5.28-6.95-5.28c-1.81,0-3.04,0.16-3.68,0.32V49.63z"/>
			<path class="st0" d="M545.06,32.84v13.8h14.66v-13.8h8.88v35.93h-8.88V53.74h-14.66v15.03h-8.94V32.84H545.06z"/>
			<path class="st0" d="M576.36,33.32c2.74-0.43,6.6-0.75,12.04-0.75c5.49,0,9.4,0.96,12.03,2.88c2.51,1.81,4.21,4.8,4.21,8.32
				c0,3.52-1.29,6.5-3.62,8.53c-3.03,2.6-7.54,3.78-12.79,3.78c-1.17,0-2.22-0.05-3.04-0.16v12.85h-8.82V33.32z M585.19,49.63
				c0.76,0.16,1.7,0.21,2.98,0.21c4.73,0,7.66-2.19,7.66-5.86c0-3.31-2.51-5.28-6.95-5.28c-1.81,0-3.03,0.16-3.68,0.32V49.63z"/>
		</g>
	</g>
	<g>
		<path class="st4" d="M798.97,48.56h-97.84c-7.36,0-13.32,5.44-13.32,12.16v45.02c0,6.71,5.97,12.16,13.32,12.16h7.89v28.96
			c0,1.49,1.98,2.24,3.14,1.19l33.04-30.15h53.77c7.36,0,13.32-5.44,13.32-12.16V60.71C812.29,54,806.33,48.56,798.97,48.56z"/>
		<path class="st0" d="M707.08,71.75v9.26h9.83v-9.26h5.95v24.1h-5.95V85.77h-9.83v10.08h-6v-24.1H707.08z"/>
		<path class="st0" d="M733.17,76.33h-7.09v-4.58h20.3v4.58h-7.21v19.52h-5.99V76.33z"/>
		<path class="st0" d="M771.71,86.62c-0.12-2.89-0.23-6.4-0.23-9.9h-0.12c-0.82,3.07-1.92,6.51-2.94,9.33l-3.21,9.4h-4.66
			l-2.82-9.33c-0.87-2.82-1.77-6.26-2.39-9.4h-0.08c-0.16,3.25-0.28,6.97-0.47,9.97l-0.47,9.16h-5.53l1.69-24.1h7.95l2.59,8.04
			c0.82,2.79,1.64,5.79,2.23,8.61h0.12c0.74-2.79,1.64-5.97,2.51-8.65l2.82-8.01h7.8l1.45,24.1h-5.83L771.71,86.62z"/>
		<path class="st0" d="M782.52,71.75h5.99v19.52h10.5v4.58h-16.49V71.75z"/>
	</g>
	<g>
		<path class="st4" d="M683.99,343.65H579.33c-7.87,0-14.25-5.82-14.25-13.01v-48.16c0-7.18,6.38-13.01,14.25-13.01h8.44V238.5
			c0-1.6,2.12-2.4,3.36-1.27l35.34,32.25h57.52c7.87,0,14.25,5.82,14.25,13.01v48.16C698.25,337.83,691.87,343.65,683.99,343.65z"/>
		<g>
			<g>
				<path class="st0" d="M617.54,320.4c-1.45,0.67-4.71,1.37-8.96,1.37c-12.07,0-18.29-6.85-18.29-15.92
					c0-10.87,8.5-16.92,19.06-16.92c4.09,0,7.2,0.76,8.6,1.42l-1.6,5.72c-1.61-0.61-3.83-1.18-6.63-1.18
					c-6.27,0-11.14,3.45-11.14,10.54c0,6.38,4.15,10.39,11.19,10.39c2.38,0,5.02-0.47,6.58-1.04L617.54,320.4z"/>
			</g>
			<path class="st0" d="M622.2,313.88c2.12,1,5.38,1.99,8.75,1.99c3.63,0,5.55-1.37,5.55-3.45c0-1.98-1.66-3.12-5.86-4.49
				c-5.8-1.84-9.58-4.78-9.58-9.41c0-5.43,4.97-9.59,13.21-9.59c3.94,0,6.84,0.76,8.91,1.6l-1.76,5.81
				c-1.39-0.61-3.88-1.51-7.3-1.51s-5.07,1.42-5.07,3.07c0,2.03,1.96,2.93,6.47,4.49c6.16,2.08,9.06,5.01,9.06,9.5
				c0,5.34-4.51,9.88-14.09,9.88c-3.99,0-7.92-0.94-9.89-1.94L622.2,313.88z"/>
			<path class="st0" d="M650.65,313.88c2.12,1,5.38,1.99,8.75,1.99c3.63,0,5.55-1.37,5.55-3.45c0-1.98-1.66-3.12-5.86-4.49
				c-5.8-1.84-9.58-4.78-9.58-9.41c0-5.43,4.97-9.59,13.21-9.59c3.94,0,6.84,0.76,8.91,1.6l-1.76,5.81
				c-1.39-0.61-3.88-1.51-7.3-1.51s-5.07,1.42-5.07,3.07c0,2.03,1.96,2.93,6.47,4.49c6.16,2.08,9.06,5.01,9.06,9.5
				c0,5.34-4.51,9.88-14.09,9.88c-3.99,0-7.92-0.94-9.89-1.94L650.65,313.88z"/>
		</g>
	</g>
	<g>
		<path class="st4" d="M271,168.34h192.04c6.87,0,12.43,5.08,12.43,11.34v42c0,6.26-5.56,11.34-12.43,11.34h-46.25v27.01
			c0,1.4-1.85,2.09-2.93,1.11l-30.82-28.12H271c-6.86,0-12.43-5.08-12.43-11.34v-42C258.57,173.42,264.14,168.34,271,168.34z"/>
		<g>
			<path class="st0" d="M285.38,192.24h5.06v12.95c0,5.84-3.07,7.88-8,7.88c-1.17,0-2.7-0.18-3.7-0.49l0.57-3.74
				c0.7,0.21,1.6,0.36,2.6,0.36c2.13,0,3.47-0.88,3.47-4.07V192.24z"/>
			<path class="st0" d="M299.91,207.47l-1.6,5.26h-5.26l6.87-20.49h6.66l6.97,20.49h-5.46l-1.73-5.26H299.91z M305.6,204.01
				l-1.4-4.35c-0.4-1.22-0.8-2.74-1.13-3.95H303c-0.33,1.22-0.67,2.77-1.03,3.95l-1.34,4.35H305.6z"/>
			<path class="st0" d="M319.86,212.73l-7.2-20.49h5.57l2.73,8.67c0.77,2.43,1.47,4.78,2,7.33h0.1c0.57-2.46,1.27-4.9,2.03-7.24
				l2.87-8.76h5.4l-7.56,20.49H319.86z"/>
			<path class="st0" d="M339.18,207.47l-1.6,5.26h-5.27l6.87-20.49h6.66l6.96,20.49h-5.47l-1.73-5.26H339.18z M344.87,204.01
				l-1.4-4.35c-0.4-1.22-0.8-2.74-1.13-3.95h-0.07c-0.34,1.22-0.67,2.77-1.03,3.95l-1.33,4.35H344.87z"/>
			<path class="st0" d="M355.49,207.96c1.36,0.64,3.46,1.28,5.63,1.28c2.34,0,3.57-0.88,3.57-2.22c0-1.28-1.07-2.01-3.77-2.89
				c-3.73-1.19-6.16-3.07-6.16-6.05c0-3.5,3.2-6.17,8.5-6.17c2.53,0,4.4,0.49,5.73,1.03l-1.13,3.74c-0.9-0.39-2.5-0.97-4.69-0.97
				c-2.2,0-3.26,0.91-3.26,1.98c0,1.31,1.26,1.89,4.16,2.89c3.97,1.34,5.83,3.22,5.83,6.11c0,3.43-2.9,6.35-9.06,6.35
				c-2.57,0-5.1-0.61-6.36-1.25L355.49,207.96z"/>
			<path class="st0" d="M389.8,212.16c-0.93,0.42-3.03,0.88-5.76,0.88c-7.76,0-11.76-4.41-11.76-10.25
				c0-6.99,5.47-10.88,12.26-10.88c2.64,0,4.64,0.49,5.53,0.91l-1.03,3.68c-1.03-0.39-2.47-0.76-4.27-0.76
				c-4.03,0-7.17,2.22-7.17,6.78c0,4.11,2.67,6.69,7.2,6.69c1.53,0,3.23-0.3,4.23-0.67L389.8,212.16z"/>
			<path class="st0" d="M393.13,192.52c1.63-0.24,4.07-0.43,6.76-0.43c3.33,0,5.67,0.46,7.26,1.61c1.33,0.97,2.07,2.4,2.07,4.29
				c0,2.61-2.03,4.41-3.97,5.05v0.09c1.57,0.58,2.43,1.94,3,3.83c0.7,2.31,1.4,4.99,1.83,5.77h-5.2c-0.37-0.58-0.9-2.25-1.57-4.77
				c-0.6-2.55-1.57-3.25-3.63-3.28h-1.53v8.06h-5.03V192.52z M398.16,201.33h2c2.53,0,4.03-1.16,4.03-2.95
				c0-1.89-1.4-2.83-3.73-2.86c-1.23,0-1.93,0.09-2.3,0.15V201.33z"/>
			<path class="st0" d="M417.98,192.24v20.49h-5.1v-20.49H417.98z"/>
			<path class="st0" d="M422.38,192.52c1.56-0.24,3.76-0.43,6.86-0.43c3.13,0,5.36,0.55,6.86,1.64c1.44,1.03,2.4,2.74,2.4,4.74
				c0,2.01-0.73,3.71-2.07,4.86c-1.73,1.49-4.3,2.16-7.29,2.16c-0.67,0-1.27-0.03-1.74-0.09v7.33h-5.03V192.52z M427.41,201.82
				c0.43,0.09,0.97,0.12,1.7,0.12c2.7,0,4.37-1.25,4.37-3.35c0-1.89-1.43-3.01-3.97-3.01c-1.03,0-1.74,0.09-2.1,0.18V201.82z"/>
			<path class="st0" d="M446.07,196.13h-6.03v-3.89h17.26v3.89h-6.13v16.6h-5.1V196.13z"/>
		</g>
	</g>
	<g>
		<path class="st11" d="M391.59,50.17c-5.21,0-10.14,1.08-14.57,2.96c-3.79-17.32-20.54-30.37-40.63-30.37
			c-20.57,0-37.64,13.69-40.87,31.62c-1.69-0.42-3.45-0.67-5.29-0.67c-11.06,0-20.02,8.18-20.02,18.27c0,0.32,0.04,0.63,0.05,0.95
			c-0.93-0.11-1.87-0.18-2.83-0.18c-12.29,0-22.25,9.09-22.25,20.3c0,11.21,9.96,20.3,22.25,20.3s109.09,0,124.17,0
			c19.12,0,34.62-14.14,34.62-31.59C426.21,64.32,410.71,50.17,391.59,50.17z"/>
		<path class="st12" d="M311.31,71.61c-2.43-10.71-12.82-18.75-25.28-18.75c-11.61,0-21.43,6.99-24.68,16.62
			c-8.56,0.07-15.6,5.89-16.74,13.43c-8.8,0.44-15.79,7.07-15.79,15.21c0,8.43,7.48,15.25,16.72,15.25c8.29,0,51.22,0,61.02,0
			c12.77,0,23.13-9.45,23.13-21.1C329.68,82.09,321.8,73.61,311.31,71.61z"/>
	</g>
	<path class="st1" d="M860.11,335.06l-7.12,0.03l0.04,8.76l6.79-0.03c0.99,3.07,3.11,5.79,6.05,7.65l-2.04,5.81l9.14,2.67l2.09-5.97
		c3.44-0.07,6.73-1.18,9.37-3.11l5.88,3.86l5.6-7.1l-6.24-4.1c0.84-2.82,0.68-5.67-0.28-8.26l6.43-4.31l-5.67-7.06l-6.49,4.34
		c-1.26-0.81-2.67-1.46-4.22-1.91c-1.39-0.41-2.8-0.61-4.2-0.65l-2.48-6.85l-9.11,2.74l2.36,6.53
		C863.36,329.73,861.26,332.12,860.11,335.06z M880.23,341.43c-0.98,2.78-4.24,4.32-7.29,3.43c-3.05-0.89-4.73-3.87-3.75-6.65
		c0.98-2.78,4.24-4.32,7.29-3.43C879.53,335.67,881.21,338.65,880.23,341.43z"/>
</g>
</svg>
